<svg xmlns="http://www.w3.org/2000/svg" viewBox="0 0 411.71 105.16"><defs><style>.cls-1,.cls-2{fill:#fff;}.cls-2{stroke:#fff;stroke-miterlimit:10;stroke-width:6px;}</style></defs><title>Asset 4</title><g id="Layer_2" data-name="Layer 2"><g id="Layer_1-2" data-name="Layer 1"><path class="cls-1" d="M75.58,88.32c-1.69-8,.77-11,9-10.64,5.73.24,11.47.45,17.19.94a6.22,6.22,0,0,0,5.89-2.39c7-8.14,14.4-16,21.34-24.22,3.17-3.76,5.64-.38,8.37.15,3.18.62,1.33,2.87,1.07,4.44-.49,3-2.2,6.18-1.49,8.77.77,2.78,5,2.3,7.5,3.73,9.33,5.28,15,18.63,12,28.63-.47,1.55-1.42,1.55-2.59,1.55h-7.64c3.31-8.94,2-16.59-6-22.12a16.09,16.09,0,0,0-18.58.42c-6.39,4.55-8.1,10.87-5.63,21.41H42c.58-2.91,1.79-5.83,1.66-9,6.93-.94,13.89-.23,20.83-.4,3-.07,6-.15,9,0C74.35,89.62,75.52,89.87,75.58,88.32Z"/><path class="cls-1" d="M105.75,55.3c-1.86-1.51-3-.19-4.23.28-2.8,1.11-5.54,2.35-8.27,3.6a16.11,16.11,0,0,1-13.36.35q-6.76-2.76-13.42-5.76c-2.73-1.25-5.46-2.49-5.9-6.16-.23-1.89-1.51-1.61-2.72-.49C48,56.26,36.79,63.83,27.88,74c-.61.69-1.25.42-1.88.52-12.69,1.94-18.27,11-14.47,23.38a7,7,0,0,1,0,1.4c-3.06,0-6.13,0-9.2,0-1.53,0-1.79-.8-2-2.13A18.94,18.94,0,0,1,2,85.09C6.23,76.68,13.1,71.37,21.53,67.77c1.08-.46,2.32-.85,2.92.63,1.3,3.21,2.72,2.06,4.59.43,8.78-7.63,17.6-15.22,26.54-22.67,2-1.66,2.38-2.74.35-4.57A43.09,43.09,0,0,1,52,37a1.71,1.71,0,0,1,.1-2.65,1.82,1.82,0,0,1,2.69.17c.8.82,1.53,1.71,2.29,2.57,2.37,2.69,3.86,5.92,9,4.54,3.46-.93,7.41,1.92,10.74,3.73,6.67,3.62,12.75,3.2,19.38-.19,7.24-3.69,14.65-7.41,23.33-6.08A37.27,37.27,0,0,1,127.93,41c3.13,1.24,3.89,3.08,1.47,5.85-8,9.2-16,18.46-24.53,28.38-2-5.47-3.73-10.33-5.5-15.19-.51-1.39.51-1.65,1.44-2.1C102.43,57.11,104,56.23,105.75,55.3Z"/><path class="cls-1" d="M117.28,1.29c11.35-.16,16.6,5.66,15.37,17-.11,1-.2,2-.34,3-1.8,13-3,14.06-15.81,15.37-7.55.77-15.12,1.53-22.62,2.65-3.48.52-3.26-1.69-3.6-3.71-.4-2.34.54-3.41,3-3.48,4-.12,8-.61,12-.69,2.39,0,3.34-1.21,3.62-3.33a6.11,6.11,0,0,0,.08-.85c0-13.69,1.09-12.34-11.38-10.76-2.1.26-5.14,2.1-6.27-.4-1-2.11,1.28-4.48,2.83-6.35C98.61,4.45,107,1.43,117.28,1.29Z"/><path class="cls-1" d="M75.58,88.32c1.44,1.14,2.14,2-.58,2Q59.31,90.15,43.63,90c1-1.73,2.55-.75,3.79-.76,7.83-.11,15.67-.06,23.61-.06-4.56-4.76-8.91-9.23-13.15-13.8-1.37-1.48-2.32-1-3.59.06-3.46,2.78-7,5.43-10.49,8.23-1.46,1.19-2.16,1.22-3.12-.63-1.75-3.38-4.65-5.7-8.6-7.51,7-5.91,13.51-12,20.86-17,3.3-2.23,6.67-1.77,9.9.83C67.3,63,72,66.3,76.52,69.87c1.63,1.29,2.83,1.35,4.53.17,3.42-2.36,7-4.43,10.49-6.74,1.69-1.14,2.57-1.29,3.17,1.08.86,3.42,2.1,6.74,3.18,10.13-5.63,0-10.91-.19-16.18,0C73.8,74.91,70.15,79.93,72,87.7,72.59,90.46,74.14,89.42,75.58,88.32Z"/><path class="cls-1" d="M40.15,91.16a13.91,13.91,0,1,1-13.91-14A14,14,0,0,1,40.15,91.16Z"/><path class="cls-1" d="M145.1,91.16a14,14,0,1,1-14-14A14.23,14.23,0,0,1,145.1,91.16Z"/><path class="cls-1" d="M31.53,91.53c-.07,2.91-1.9,4.88-5.23,4.91-3.07,0-5.11-1.68-5.3-4.91-.21-3.45,1.73-5.33,5-5.71C28.91,85.48,31.43,88,31.53,91.53Z"/><path class="cls-1" d="M131,85.77c2.86,0,5.61,2.64,5.4,5.48-.22,3.09-2,5-5.14,5.24a5.43,5.43,0,0,1-5.66-5.2A5.63,5.63,0,0,1,131,85.77Z"/><path class="cls-1" d="M205.4,40.65a1.22,1.22,0,0,1-.33-.9V12.24A1.14,1.14,0,0,1,206.3,11h11.15a15.93,15.93,0,0,1,11,3.77,13,13,0,0,1,3.48,4.86A16.17,16.17,0,0,1,233.07,26a16.2,16.2,0,0,1-1.23,6.33,13.86,13.86,0,0,1-3.44,4.94A14.34,14.34,0,0,1,223.54,40a18.69,18.69,0,0,1-6.09,1H206.3A1.22,1.22,0,0,1,205.4,40.65Zm12-5.29q9.06,0,9.06-9.34t-9.06-9.35h-5.9V35.36Z"/><path class="cls-1" d="M243.69,23.31h13.12A1.14,1.14,0,0,1,258,24.54v3.2A1.14,1.14,0,0,1,256.81,29H243.69v6.39h15a1.14,1.14,0,0,1,1.23,1.23v3.16A1.14,1.14,0,0,1,258.7,41H238.44a1.14,1.14,0,0,1-1.23-1.23V12.24A1.14,1.14,0,0,1,238.44,11H258.7a1.14,1.14,0,0,1,1.23,1.23V15.4a1.14,1.14,0,0,1-1.23,1.23h-15Z"/><path class="cls-1" d="M292.73,11.87a1.42,1.42,0,0,1-.17.62L278.91,40a.9.9,0,0,1-.82.65c-.3,0-.57-.21-.82-.65L263.7,12.49a1.39,1.39,0,0,1-.16-.62c0-.54.35-.82,1.06-.82h4.47a1.5,1.5,0,0,1,1.48.9l7.54,15.67L285.67,12a1.5,1.5,0,0,1,1.48-.9h4.51C292.37,11.05,292.73,11.33,292.73,11.87Z"/><path class="cls-1" d="M289.24,40.76a.72.72,0,0,1-.28-.6,1.5,1.5,0,0,1,.2-.65L304,11.67c.25-.44.53-.66.86-.66a.93.93,0,0,1,.86.66l14.8,27.84a1.54,1.54,0,0,1,.21.65.73.73,0,0,1-.29.6,1.23,1.23,0,0,1-.78.22h-4.47a1.55,1.55,0,0,1-1.43-.9l-1.93-3.69h-14L296,40.08a1.47,1.47,0,0,1-1.44.9H290A1.23,1.23,0,0,1,289.24,40.76Zm19.44-9.91L304.82,23,301,30.85Z"/><path class="cls-1" d="M358.29,11.91a1.53,1.53,0,0,1-.13.58L347.38,40.16c-.22.52-.49.78-.82.78s-.63-.23-.82-.7l-7.67-16-7.75,16c-.21.47-.49.7-.82.7s-.6-.26-.82-.78L318,12.49a1.66,1.66,0,0,1-.12-.54.81.81,0,0,1,.29-.65,1.18,1.18,0,0,1,.82-.25h4.43a1.34,1.34,0,0,1,1.39,1l5.41,14.55L337.25,12c.25-.46.52-.69.82-.69s.63.23.82.69L346,26.59,351.48,12a1.34,1.34,0,0,1,1.39-1h4.35C357.93,11.05,358.29,11.34,358.29,11.91Z"/><path class="cls-1" d="M355.83,40.76a.73.73,0,0,1-.29-.6,1.54,1.54,0,0,1,.21-.65l14.8-27.84c.24-.44.53-.66.86-.66a.93.93,0,0,1,.86.66l14.8,27.84a1.5,1.5,0,0,1,.2.65.72.72,0,0,1-.28.6,1.25,1.25,0,0,1-.78.22h-4.47a1.56,1.56,0,0,1-1.44-.9l-1.92-3.69h-14l-1.85,3.69a1.45,1.45,0,0,1-1.43.9h-4.51A1.23,1.23,0,0,1,355.83,40.76Zm19.43-9.91L371.41,23l-3.82,7.83Z"/><path class="cls-1" d="M411.42,11.26a.65.65,0,0,1,.29.57,1.25,1.25,0,0,1-.25.7L400.52,29.62V39.75A1.14,1.14,0,0,1,399.29,41h-4a1.2,1.2,0,0,1-.9-.33,1.22,1.22,0,0,1-.33-.9V29.62L383.17,12.53a1.31,1.31,0,0,1-.24-.7.64.64,0,0,1,.28-.57,1.33,1.33,0,0,1,.78-.21h4.84a1.58,1.58,0,0,1,1.48.82l7,11.28,7.05-11.28a1.57,1.57,0,0,1,1.48-.82h4.83A1.29,1.29,0,0,1,411.42,11.26Z"/><path class="cls-1" d="M210.87,90.4a1.26,1.26,0,0,1-.91.32h-4a1.12,1.12,0,0,1-1.23-1.23V62a1.25,1.25,0,0,1,.32-.9,1.22,1.22,0,0,1,.91-.33h12.09a11.91,11.91,0,0,1,5.66,1.31,9.41,9.41,0,0,1,3.81,3.69,10.8,10.8,0,0,1,1.36,5.42A10.46,10.46,0,0,1,227.27,77a9.71,9.71,0,0,1-4.47,3.73l1.14,1.47,2.1,2.69q1.31,1.69,3.32,4.37a1.12,1.12,0,0,1,.32.78.63.63,0,0,1-.26.53,1.21,1.21,0,0,1-.76.2h-4.92a1.88,1.88,0,0,1-1.52-.69q-3.12-4-6.6-8.65h-4.43v8.11A1.26,1.26,0,0,1,210.87,90.4Zm7.21-14.64a4.32,4.32,0,0,0,3.1-1.25,4.45,4.45,0,0,0,1.29-3.34,5.51,5.51,0,0,0-1.05-3.41,3.89,3.89,0,0,0-3.34-1.39h-6.89v9.39Z"/><path class="cls-1" d="M231.73,90.5a.72.72,0,0,1-.28-.6,1.65,1.65,0,0,1,.2-.65l14.8-27.84c.25-.44.54-.66.86-.66a.94.94,0,0,1,.87.66L263,89.25a1.65,1.65,0,0,1,.2.65.7.7,0,0,1-.29.6,1.21,1.21,0,0,1-.77.22h-4.47a1.56,1.56,0,0,1-1.44-.9l-1.93-3.69h-14l-1.84,3.69a1.45,1.45,0,0,1-1.44.9h-4.51A1.26,1.26,0,0,1,231.73,90.5Zm19.44-9.9-3.86-7.83L243.5,80.6Z"/><path class="cls-1" d="M288.64,81a1.51,1.51,0,0,1,.58.12L293,82.52c.55.22.82.54.82,1a1.2,1.2,0,0,1-.25.69,15.43,15.43,0,0,1-5.82,5.27,16.76,16.76,0,0,1-15.76-.2A16,16,0,0,1,266,83.55a14.82,14.82,0,0,1-2.17-7.79A14.64,14.64,0,0,1,266,68a15.88,15.88,0,0,1,5.91-5.68,16.45,16.45,0,0,1,15.68-.2,16.35,16.35,0,0,1,5.88,5.16,1.25,1.25,0,0,1,.25.7c0,.41-.26.72-.78.94l-3.73,1.44a1.59,1.59,0,0,1-.62.12,1.32,1.32,0,0,1-1.06-.57,11.08,11.08,0,0,0-3.47-2.79,8.82,8.82,0,0,0-4.08-1,9.23,9.23,0,0,0-4.8,1.32A9.77,9.77,0,0,0,271.67,71a9.29,9.29,0,0,0-1.31,4.76,9.42,9.42,0,0,0,1.29,4.78,9.66,9.66,0,0,0,3.5,3.54A9.13,9.13,0,0,0,280,85.43a9.6,9.6,0,0,0,7.59-3.81A1.35,1.35,0,0,1,288.64,81Z"/><path class="cls-1" d="M305.58,90.4a1.26,1.26,0,0,1-.91.32h-4a1.26,1.26,0,0,1-.91-.32,1.22,1.22,0,0,1-.33-.91V62a1.14,1.14,0,0,1,1.24-1.23h4a1.22,1.22,0,0,1,.91.33,1.25,1.25,0,0,1,.32.9V89.49A1.26,1.26,0,0,1,305.58,90.4Z"/><path class="cls-1" d="M319.64,89.49a1.22,1.22,0,0,1-.33.91,1.25,1.25,0,0,1-.9.32h-4a1.25,1.25,0,0,1-.9-.32,1.22,1.22,0,0,1-.33-.91v-28a.73.73,0,0,1,.17-.51.53.53,0,0,1,.45-.19,1.36,1.36,0,0,1,.9.41L333.87,78.1V62a1.13,1.13,0,0,1,1.22-1.23h4a1.19,1.19,0,0,1,.9.33,1.22,1.22,0,0,1,.33.9V89.66a1.48,1.48,0,0,1-.2.8.63.63,0,0,1-.54.3.9.9,0,0,1-.65-.28L319.64,73.67Z"/><path class="cls-1" d="M359.49,74.36a1.25,1.25,0,0,1,.9-.32h15.7a1.1,1.1,0,0,1,1.23,1.23c0,.32.05.72.05,1.19l-.09,1.72a13.16,13.16,0,0,1-2.5,6.72,15.11,15.11,0,0,1-5.66,4.72,17.34,17.34,0,0,1-7.5,1.68,16.29,16.29,0,0,1-8.06-2.07,16.05,16.05,0,0,1-5.92-5.68,15,15,0,0,1,0-15.56,15.93,15.93,0,0,1,5.9-5.68,16.46,16.46,0,0,1,20.87,4.06,1.25,1.25,0,0,1,.33.78,1.14,1.14,0,0,1-.66.94l-3.48,2a1.6,1.6,0,0,1-.7.21,1.41,1.41,0,0,1-1-.54,11.65,11.65,0,0,0-3.36-2.66,8.31,8.31,0,0,0-3.9-1,9.32,9.32,0,0,0-4.82,1.32A10,10,0,0,0,353.22,71a9.28,9.28,0,0,0,0,9.54,9.67,9.67,0,0,0,3.56,3.54,9.13,9.13,0,0,0,4.84,1.35,9.82,9.82,0,0,0,3.73-.75,10.14,10.14,0,0,0,3.2-2.07,6.61,6.61,0,0,0,1.8-2.87h-10a1.14,1.14,0,0,1-1.23-1.23V75.27A1.22,1.22,0,0,1,359.49,74.36Z"/><line class="cls-2" x1="182.23" x2="182.23" y2="104"/></g></g></svg>